<svg width="336" height="44" viewBox="0 0 336 44" fill="none" xmlns="http://www.w3.org/2000/svg">
<g clip-path="url(#clip0_1294_18497)">
<path d="M105.605 43.5974C115.155 43.5974 122.924 35.4948 122.924 25.5362C122.924 22.9781 122.408 20.5444 121.485 18.3372C119.528 18.6348 117.503 18.9428 115.419 19.2598C115.915 21.0908 116.176 23.1916 116.176 25.5362C116.176 34.6919 112.224 40.1586 105.605 40.1586C98.9573 40.1586 94.988 34.6919 94.988 25.5362C94.988 24.4133 95.0485 23.3465 95.1655 22.3377C92.9256 22.6779 90.6579 23.0222 88.3696 23.3695C88.2875 24.0806 88.2402 24.8026 88.2402 25.5362C88.2402 35.4948 96.0299 43.5974 105.605 43.5974Z" fill="black"/>
<path d="M143.486 43.1406V14.988C141.653 15.2673 139.513 15.5933 137.102 15.9604V43.1406H143.486Z" fill="black"/>
<path d="M169.099 43.1406V12.7119L162.67 15.9837V43.1406H169.099Z" fill="black"/>
<path d="M203.672 33.2791C201.495 39.1855 196.394 40.0674 193.547 40.0674C186.869 40.0674 182.883 34.6353 182.883 25.5361C182.883 16.4369 186.869 11.0035 193.547 11.0035C198.348 11.0035 202.004 13.5066 203.578 17.8716L204.198 19.5922L207.306 18.0326L206.808 16.6676C204.675 10.8248 199.742 7.47412 193.272 7.47412C183.663 7.47412 176.137 15.4277 176.137 25.5816C176.137 35.8518 183.503 43.5973 193.272 43.5973C199.776 43.5973 204.741 40.2837 206.896 34.5052L207.406 33.1337L204.3 31.5762L203.672 33.2791Z" fill="black"/>
<path d="M274.873 36.7751L273.008 31.4344L273 31.413C272.289 29.4633 270.924 27.8792 269.015 26.7336C272.359 25.263 275.283 22.5111 275.283 18.0954C275.283 11.7308 270.102 7.93188 261.422 7.93188H248.334V43.1405H254.764V28.1676H260.376C264.484 28.1676 265.812 29.7867 266.947 32.9751L268.755 38.0564C269.389 39.9639 270.033 41.3563 270.781 42.4403L271.265 43.1405H279.91L276.854 40.3154C276.095 39.6151 275.413 38.3986 274.873 36.7751ZM261.012 24.7299H254.764V11.3696H260.968C266.368 11.3696 268.672 13.3946 268.672 18.1409C268.672 22.6976 266.309 24.7299 261.012 24.7299Z" fill="black"/>
<path d="M284.639 7.93188V43.1405H289.016L291.069 41.6898V7.93188H284.639Z" fill="black"/>
<path d="M315.47 7.47412C305.896 7.47412 298.107 15.5764 298.107 25.5361C298.107 29.1844 299.156 32.5812 300.951 35.4241L305.886 32.7076C305.211 30.6775 304.853 28.2731 304.853 25.5361C304.853 16.3793 308.823 10.9126 315.47 10.9126C321.119 10.9126 324.823 14.895 325.789 21.7514L331.469 18.6247C328.862 12.085 322.673 7.47412 315.47 7.47412Z" fill="black"/>
<path d="M20.9764 43.5975C28.6733 43.5975 35.2102 38.3326 37.4585 31.0764C35.1609 31.4229 32.9084 31.7622 30.7103 32.0931C29.223 37.2371 25.813 40.1586 20.9763 40.1586C17.0707 40.1586 14.0913 38.2695 12.2966 34.856C10.295 35.1549 8.402 35.437 6.63135 35.7001C9.76105 40.4637 15.0229 43.5975 20.9764 43.5975Z" fill="black"/>
<path d="M66.7943 43.4959C76.3438 43.4959 82.2765 38.9602 82.2765 31.6593C82.2765 28.8015 81.1474 26.5039 79.3584 24.7371C77.0897 25.0811 74.812 25.4265 72.5321 25.7721C73.9609 26.9933 74.9625 28.8794 74.9625 31.7692C74.9625 37.5521 72.3549 40.02 66.2437 40.02H54.024V28.5746C51.6353 28.9359 49.2678 29.2937 46.9299 29.6468V43.4959H66.7943Z" fill="black"/>
<path d="M230.642 2.34204H226.876L209.176 43.1407H212.941L218.129 31.1812H230.807L236.221 43.1407H243.059L227.692 9.14199L230.642 2.34204ZM229.245 27.7424H219.627L224.332 16.8605L229.245 27.7424Z" fill="black"/>
<path d="M101.993 5.86328C93.1232 5.86328 85.7905 12.8174 84.7576 21.7589C87.0459 21.4116 89.3136 21.0673 91.5535 20.7271C92.3907 13.511 96.1605 9.30214 101.993 9.30214C106.917 9.30214 110.364 12.3296 111.807 17.6492C113.891 17.3322 115.916 17.0242 117.873 16.7265C115.2 10.3399 109.09 5.86328 101.993 5.86328Z" fill="black"/>
<path d="M152.613 9.75897V6.32129H120.796V9.75897H133.49V14.3497C135.901 13.9826 138.041 13.6566 139.875 13.3773V9.75897H152.613Z" fill="black"/>
<path d="M159.058 6.32129V15.1785L165.487 11.9066V6.32129H159.058Z" fill="black"/>
<path d="M17.3645 5.86328C7.7896 5.86328 0 13.9655 0 23.9256C0 27.6921 1.11574 31.192 3.01947 34.0894C4.79013 33.8263 6.68307 33.5442 8.68468 33.2453C7.42461 30.8489 6.74774 27.7021 6.74774 23.9256C6.74774 14.7688 10.7171 9.30214 17.3645 9.30214C23.9837 9.30214 27.9357 14.7688 27.9357 23.9256C27.9357 26.3913 27.6467 28.5867 27.0984 30.4825C29.2965 30.1516 31.5491 29.8122 33.8466 29.4658C34.3879 27.7188 34.6835 25.8579 34.6835 23.9256C34.6835 13.9655 26.9144 5.86328 17.3645 5.86328Z" fill="black"/>
<path d="M77.0147 11.1747C77.0147 4.07344 71.4321 0 61.6972 0H43.3181V28.0359C45.656 27.6828 48.0235 27.3249 50.4122 26.9637V22.0183H61.7522C63.8743 22.0183 66.8472 22.3894 68.9203 24.1612C71.2002 23.8156 73.4779 23.4702 75.7466 23.1262C74.4576 21.8531 72.8283 20.8538 71.0211 20.1277C74.4827 18.3306 77.0147 15.2417 77.0147 11.1747ZM61.8621 18.5424H50.4122V3.47592H61.2019C67.275 3.47592 69.8656 5.77881 69.8656 11.1747C69.8656 16.3394 67.4721 18.5424 61.8621 18.5424Z" fill="black"/>
<path d="M318.681 44C328.231 44 336 35.8978 336 25.9388C336 23.4916 335.529 21.1576 334.679 19.0273L328.999 22.1541C329.165 23.3333 329.253 24.5951 329.253 25.9388C329.253 35.0944 325.301 40.5612 318.681 40.5612C314.021 40.5612 310.679 37.8713 309.096 33.1103L304.162 35.8268C307.267 40.7442 312.614 44 318.681 44Z" fill="black"/>
</g>
<defs>
<clipPath id="clip0_1294_18497">
<rect width="336" height="44" fill="white"/>
</clipPath>
</defs>
</svg>
